Coordinates
version=1
nRows=9
nColumns=36
inDegrees=yes

Units are S.I. units (second, meters, Newtons, ...)
If the header above contains a line with 'inDegrees', this indicates whether rotational values are in degrees (yes) or radians (no).

endheader
time	pelvis_tilt	pelvis_list	pelvis_rotation	pelvis_tx	pelvis_ty	pelvis_tz	hip_flexion_r	hip_adduction_r	hip_rotation_r	knee_angle_r	knee_angle_r_beta	ankle_angle_r	subtalar_angle_r	mtp_angle_r	hip_flexion_l	hip_adduction_l	hip_rotation_l	knee_angle_l	knee_angle_l_beta	ankle_angle_l	subtalar_angle_l	mtp_angle_l	lumbar_extension	lumbar_bending	lumbar_rotation	arm_flex_r	arm_add_r	arm_rot_r	elbow_flex_r	pro_sup_r	arm_flex_l	arm_add_l	arm_rot_l	elbow_flex_l	pro_sup_l
      0.00000000	      0.54926167	     -0.36040257	     -0.17978611	     -0.90868481	      1.23575815	     -0.07557266	      0.16531229	     -0.65420631	      4.38499555	      6.59005754	      0.11501820	      2.85846073	     -8.09320506	     -5.81787849	     -1.53391392	     -2.14662363	      0.72372021	      3.53864241	      0.06176096	      7.34977746	      1.15623245	     -5.81787849	    -11.00091829	      1.88655113	     -2.53445677	     11.17858211	     -7.79964102	     28.57480338	     31.04103885	     73.22026417	      3.25173812	     -9.98271731	     17.28965569	     38.56232602	     71.05705282
      0.00416670	     -0.74534336	     -0.37152105	      0.08684732	     -0.90863774	      1.23304896	     -0.07563821	      1.15408568	     -0.41487866	      5.37116204	      5.94519264	      0.10376319	      5.32825472	     -5.73878117	     -6.45578025	     -0.28039898	     -1.83814306	      1.87648605	      3.17618702	      0.05543492	      6.44041219	      1.39559702	     -6.45578025	     -8.86051594	      1.89179998	     -2.43579735	     10.67233189	     -7.95337912	     28.52188767	     31.38618924	     77.37973370	      3.36519230	    -10.10244290	     17.85830942	     38.83383899	     75.55731533
      0.00833330	     -1.75681303	     -0.03219323	     -0.11151305	     -0.90704392	      1.23029463	     -0.07485375	      1.89885601	     -0.70428795	      5.16905210	      5.29897813	      0.09248462	      5.78350869	     -5.46249175	     -6.53415518	      0.69452076	     -1.53352109	      1.67067438	      3.08498732	      0.05384319	      6.05046312	      1.54145329	     -6.53415518	     -7.76592173	      1.28690164	     -2.23455938	     10.21124179	     -8.05184862	     28.48138667	     32.54422415	     76.49214486	      3.05240063	    -10.65582493	     17.81377174	     39.80868768	     74.74811359
      0.01250000	     -1.24175695	      0.14849875	     -0.16114006	     -0.90697427	      1.23320787	     -0.07522794	      1.06594410	     -0.91831479	      5.33635781	      4.72057501	      0.08238958	      5.86186651	     -5.16772127	     -6.87483424	     -0.23440501	     -1.30277846	      1.97242240	      2.39508994	      0.04180221	      5.63312100	      1.25533010	     -6.87483424	     -8.46012025	      0.93443413	     -1.68731121	     10.02961571	     -7.87158653	     26.85114252	     32.31021023	     80.65933749	      3.93558668	    -10.77481786	     18.61616934	     38.57271956	     79.91530830
      0.01666670	     -1.05525684	      0.21861329	     -0.15630083	     -0.90573093	      1.23318923	     -0.07563803	      0.60521757	     -1.02209999	      5.40778889	      4.35421114	      0.07599532	      5.98999310	     -5.02798719	     -7.00798894	     -0.71217224	     -1.19606597	      2.16419312	      1.97425859	      0.03445731	      5.55351634	      0.98862125	     -7.00798894	     -8.65486664	      0.87824686	     -1.49392202	      9.73367533	     -7.77832738	     26.47260405	     32.45942807	     79.51682102	      3.89742540	    -10.58104874	     18.48851622	     38.45775388	     79.00929805
      0.02083330	     -0.85353382	      0.35842831	     -0.17548238	     -0.90821824	      1.23532633	     -0.07509076	      0.31470225	     -1.17945374	      5.55687894	      4.18240378	      0.07299672	      6.03740234	     -4.98164405	     -7.15686189	     -0.97631716	     -1.03174887	      2.24141979	      1.74249261	      0.03041223	      5.47168081	      0.94456346	     -7.15686189	     -8.94856150	      0.72451328	     -1.30608822	      9.55032119	     -7.60813214	     25.73678566	     32.60451892	     77.80805353	      3.95673443	    -10.41470231	     18.07799939	     38.48147105	     77.67936496
      0.02500000	     -0.83643247	      0.43511548	     -0.04873144	     -0.90746854	      1.23391892	     -0.07525164	      0.23201249	     -1.28570661	      5.60048910	      4.06309449	      0.07091438	      5.98121904	     -5.09681119	     -7.28160770	     -0.98223149	     -0.94661510	      2.59671333	      1.66267783	      0.02901920	      5.42742377	      0.62332521	     -7.28160770	     -9.03906834	      0.64636717	     -1.40131806	      9.25191254	     -7.16575091	     23.21504057	     32.68205158	     83.48131410	      3.69770672	     -9.96416722	     15.19653361	     38.68610843	     84.99890441
      0.02916670	     -0.82832835	      0.46933356	     -0.04138412	     -0.90858544	      1.23376430	     -0.07477638	      0.16272848	     -1.32748321	      5.70034629	      3.89044573	      0.06790109	      5.60965106	     -5.41877494	     -7.32491443	     -0.99169181	     -0.91634810	      2.71214918	      1.59013915	      0.02775316	      5.32775355	      0.48045740	     -7.32491443	     -9.10299366	      0.62066064	     -1.21821377	      9.06864151	     -7.04856092	     22.85196902	     32.83394587	     80.73141762	      3.80573246	     -9.85005049	     14.80548148	     38.89390163	     82.18970007
      0.03333330	     -0.48141915	      0.52785209	     -0.00068371	     -0.90710627	      1.23506563	     -0.07508678	     -0.27436645	     -1.39427788	      5.87951409	      3.82517629	      0.06676192	      5.38156508	     -5.85474270	     -7.39984016	     -1.35715031	     -0.87980024	      2.75755954	      1.56113831	      0.02724700	      5.12257279	      0.33561975	     -7.39984016	     -9.53950933	      0.47866483	     -1.22799528	      9.07263133	     -7.01768345	     23.45989809	     32.78845360	     77.82033709	      3.88464002	     -9.93639492	     15.22665736	     39.13890425	     79.40619038
